<svg xmlns="http://www.w3.org/2000/svg" width="2000" height="2000" viewBox="0 0 529.167 529.167"><g transform="translate(389.952 -889.229) scale(3.1312)" style="stroke-width:.319366"><path style="fill:#588641;fill-opacity:1;stroke-width:.319366" d="M-44.87 444.378c-22.947-1.474-40.254-14.069-46.822-34.073-2.197-6.69-3.037-12.498-3.015-20.827.03-11.117 1.737-21.249 5.564-33.035 2.931-9.027 6.175-16.821 14.113-33.905 2.366-5.093 4.94-10.719 5.719-12.501 2.932-6.712 4.575-9.312 7.793-12.34 2.32-2.182 5.128-3.772 8.05-4.559 1.685-.453 2.93-.498 13.759-.498 4.654.322 9.473-.83 13.934.693 4.309 1.47 7.849 4.166 10.475 7.975 1.513 2.195 2.48 4.062 4.898 9.456.946 2.11 3.863 8.48 6.482 14.155 9.38 20.32 12.74 29.074 15.535 40.457 2.113 8.612 2.763 13.491 2.96 22.25.117 5.166.056 7.417-.278 10.284-1.036 8.898-3.64 16.72-7.788 23.4-9.965 16.045-28.833 24.516-51.38 23.068z"/><path style="fill:#9ccc65;fill-opacity:1;stroke-width:.319366" d="M-30.36 441.812c16.266-2.4 28.864-10.867 35.945-24.159 2.738-5.137 4.741-11.758 5.595-18.487.383-3.016.443-5.014.313-10.486-.21-8.858-.964-14.243-3.257-23.253-2.742-10.772-6.19-19.61-15.903-40.764-2.962-6.45-6.225-13.61-7.251-15.913-3.026-6.785-5.655-10.239-9.242-12.14-3.164-1.677-4.062-1.78-15.834-1.831-11.381-.049-12.22.027-15.063 1.365-4.088 1.924-6.768 5.27-9.916 12.377-.739 1.67-3.576 7.878-6.304 13.797-11.802 25.604-15.404 35.155-18.115 48.045-3.874 18.416-2.72 34.006 3.43 46.325 5.52 11.055 14.334 18.616 26.59 22.81 2.998 1.025 7.504 2.031 10.8 2.412 1.441.166 2.993.354 3.449.417 1.774.248 12.016-.11 14.762-.515z"/><path style="fill:#e8f277;fill-opacity:1;stroke-width:.319366" d="M-31.354 434.302c14.6-2.155 25.905-9.753 32.26-21.68 2.456-4.611 4.255-10.554 5.021-16.592.344-2.706.397-4.5.28-9.41-.187-7.95-.864-12.782-2.922-20.869-2.461-9.666-5.556-17.6-14.272-36.583-2.658-5.788-5.586-12.215-6.508-14.28-2.715-6.09-5.075-9.19-8.293-10.896-2.84-1.505-3.646-1.598-14.21-1.643-10.214-.044-10.967.025-13.519 1.226-3.668 1.726-6.073 4.728-8.898 11.107-.664 1.498-3.21 7.07-5.658 12.382-10.592 22.977-13.824 31.549-16.257 43.117-3.477 16.527-2.44 30.519 3.078 41.573 4.954 9.922 12.864 16.707 23.863 20.47 2.69.921 6.734 1.824 9.692 2.165 1.294.15 2.686.318 3.095.375 1.592.223 10.784-.098 13.248-.462z"/><path style="fill:#000;fill-opacity:.108992;stroke-width:.319366" d="M-45.774 417.139c-4.323-.32-8.597-1.543-12.341-3.535-7.827-4.164-12.906-11.455-14.55-20.884-.585-3.36-.366-10.868.427-14.588 2.839-13.327 10.825-24.92 20.246-29.39 3.58-1.698 5.237-2.069 9.26-2.069 3.869 0 5.621.366 8.813 1.839 6.557 3.026 12.577 9.517 16.554 17.846 6.523 13.664 6.57 27.978.124 37.863-5.985 9.175-16.253 13.824-28.533 12.918z"/><path style="fill:#794f41;fill-opacity:1;stroke-width:.319366" d="M-43.095 416.756c-4.323-.319-8.597-1.543-12.341-3.535-7.827-4.164-12.906-11.455-14.55-20.884-.585-3.36-.366-10.868.427-14.588 2.84-13.327 10.825-24.92 20.246-29.39 3.58-1.698 5.237-2.068 9.26-2.068 3.869 0 5.621.365 8.813 1.838 6.557 3.026 12.577 9.517 16.554 17.846 6.523 13.664 6.57 27.978.124 37.863-5.984 9.176-16.253 13.825-28.533 12.918z"/><path style="fill:#000;fill-opacity:.0871934;stroke:none;stroke-width:.319366px;stroke-linecap:butt;stroke-linejoin:miter;stroke-opacity:1" d="M-330.398 1586.871c31.604 54.471 88.856 88.046 160.808 92.668 85.213 5.474 156.529-26.544 194.192-87.186.722-1.163 1.419-2.345 2.117-3.527-106.391 61.015-220.728 83.024-357.117-1.955z" transform="scale(.26458)"/><path style="fill:#e6e6e6;fill-opacity:.11214952;stroke:none;stroke-width:.0844992px;stroke-linecap:butt;stroke-linejoin:miter;stroke-opacity:1" d="M-39.71 292.64c-10.827 0-12.073.046-13.758.499-2.922.786-5.73 2.376-8.05 4.559-1.785 1.678-3.085 3.25-4.39 5.44 26.013-10.586 38.754-5.443 52.425 1.152a30.302 30.302 0 0 0-1.817-2.982c-2.626-3.81-6.166-6.505-10.475-7.976-4.215-1.457-9.439-.692-13.934-.692z"/><path style="fill:#6b4638;fill-opacity:1;stroke:none;stroke-width:.0844992px;stroke-linecap:butt;stroke-linejoin:miter;stroke-opacity:1" d="M-68.765 397.22c2.344 7.071 6.913 12.588 13.33 16.001 3.743 1.992 8.017 3.216 12.34 3.535 12.28.907 22.548-3.743 28.533-12.918a27.873 27.873 0 0 0 2.739-5.454c-17.759 17.193-31.332 23.143-56.942-1.165z"/><path style="fill:#845648;fill-opacity:1;stroke:none;stroke-width:.0844992px;stroke-linecap:butt;stroke-linejoin:miter;stroke-opacity:1" d="M-40.053 346.29c-4.023 0-5.68.37-9.26 2.069-4.344 2.061-8.38 5.64-11.75 10.2 17.683-10.437 30.962-6.06 43.206 1.8-3.706-5.608-8.389-9.925-13.383-12.23-3.192-1.473-4.944-1.839-8.813-1.839z"/><ellipse style="fill:#845648;fill-opacity:1;stroke:none;stroke-width:3.19366;stroke-linecap:round;stroke-linejoin:round" cx="-56.562" cy="374.014" rx="7.848" ry="11.908"/><path style="fill:#eff599;fill-opacity:1;stroke:none;stroke-width:.0844992px;stroke-linecap:butt;stroke-linejoin:miter;stroke-opacity:1" d="M-65.447 332.211c-19.636 44.414-31.625 78.893 11.482 83.819-38.802-16.778-17.972-58.45-11.482-83.819zM-16.64 332.211c19.636 44.414 31.625 78.893-11.481 83.819C10.68 399.252-10.15 357.58-16.64 332.21z"/><g style="stroke-width:.319366"><g style="stroke-width:.319366" transform="translate(36.806 70.094)"></g></g></g></svg>